<svg id="Capa_1" data-name="Capa 1" xmlns="http://www.w3.org/2000/svg" viewBox="0 0 624 273.24"><defs><style>.cls-1{fill:#fff;}</style></defs><rect class="cls-1" x="132.26" y="130.48" width="84.95" height="6.22"/><polygon class="cls-1" points="190.13 195.83 130.08 135.78 134.47 131.38 194.51 191.43 190.13 195.83"/><polygon class="cls-1" points="146.61 230.46 144.23 224.71 187.97 206.6 190.35 212.34 146.61 230.46"/><polygon class="cls-1" points="74.39 195.86 70.02 191.47 130.06 131.4 134.49 135.78 74.39 195.86"/><rect class="cls-1" x="47.31" y="130.48" width="84.96" height="6.22"/><polygon class="cls-1" points="41.23 121.37 35.48 118.99 53.52 75.45 59.27 77.84 41.23 121.37"/><polygon class="cls-1" points="76.53 60.59 74.14 54.84 117.68 36.8 120.05 42.55 76.53 60.59"/><rect class="cls-1" x="129.16" y="48.63" width="6.21" height="84.95"/><polygon class="cls-1" points="187.98 60.56 144.47 42.53 146.85 36.79 190.35 54.83 187.98 60.56"/><path class="cls-1" d="M231.74,122.19a11.39,11.39,0,1,0,11.38,11.39,11.39,11.39,0,0,0-11.38-11.39m0,29a17.61,17.61,0,1,1,17.62-17.61,17.63,17.63,0,0,1-17.62,17.61"/><path class="cls-1" d="M202.6,192.52A11.39,11.39,0,1,0,214,203.91a11.41,11.41,0,0,0-11.4-11.39m0,29a17.61,17.61,0,1,1,17.62-17.6,17.62,17.62,0,0,1-17.62,17.6"/><path class="cls-1" d="M132.26,221.65A11.39,11.39,0,1,0,143.68,233a11.4,11.4,0,0,0-11.42-11.39m0,29A17.61,17.61,0,1,1,149.89,233a17.63,17.63,0,0,1-17.63,17.61"/><path class="cls-1" d="M61.94,192.52a11.39,11.39,0,1,0,11.42,11.39,11.41,11.41,0,0,0-11.42-11.39m0,29a17.61,17.61,0,1,1,17.63-17.6,17.62,17.62,0,0,1-17.63,17.6"/><path class="cls-1" d="M32.83,122.19a11.39,11.39,0,1,0,11.38,11.39,11.42,11.42,0,0,0-11.38-11.39m0,29a17.61,17.61,0,1,1,17.61-17.61,17.63,17.63,0,0,1-17.61,17.61"/><path class="cls-1" d="M61.94,51.86A11.4,11.4,0,1,0,73.36,63.24,11.42,11.42,0,0,0,61.94,51.86m0,29A17.61,17.61,0,1,1,79.57,63.24,17.62,17.62,0,0,1,61.94,80.86"/><path class="cls-1" d="M132.26,22.73a11.4,11.4,0,1,0,11.42,11.4,11.39,11.39,0,0,0-11.42-11.4m0,29a17.61,17.61,0,1,1,17.63-17.61,17.63,17.63,0,0,1-17.63,17.61"/><path class="cls-1" d="M202.6,51.86A11.4,11.4,0,1,0,214,63.24a11.42,11.42,0,0,0-11.4-11.38m0,29a17.61,17.61,0,1,1,17.62-17.62A17.62,17.62,0,0,1,202.6,80.86"/><path class="cls-1" d="M304.72,44.05A6.52,6.52,0,0,0,300,45.67a6.2,6.2,0,0,0-1.68,4.61v18c0,4.16,2.13,6.24,6.42,6.24a10,10,0,0,0,2.53-.3,7,7,0,0,0,1.95-.8,10.34,10.34,0,0,0,1.61-1.22l1.71-1.63,4.65,5.52a17.89,17.89,0,0,1-5.64,4.11,17.33,17.33,0,0,1-6.81,1.29q-6.48,0-10.4-3.33c-2.59-2.23-3.9-5.52-3.9-9.88v-18a13.83,13.83,0,0,1,1-5.5,12,12,0,0,1,3-4.15A13.25,13.25,0,0,1,299,38a16.54,16.54,0,0,1,5.72-.93,25,25,0,0,1,4.08.3,12.49,12.49,0,0,1,3.36,1.09,11.7,11.7,0,0,1,2.79,2,16.21,16.21,0,0,1,2.48,2.93l-5,4.89a9.74,9.74,0,0,0-2.82-2.8,8.82,8.82,0,0,0-4.86-1.4"/><polygon class="cls-1" points="334.82 62.35 334.82 73.92 349.54 73.92 349.54 80.89 327.2 80.89 327.2 37.7 348.47 37.7 348.47 44.69 334.82 44.69 334.82 55.69 346.32 55.69 346.32 62.35 334.82 62.35"/><polygon class="cls-1" points="383.41 37.7 390.4 37.7 390.4 80.9 377.96 80.9 366.82 46.54 366.82 80.9 359.85 80.9 359.85 37.7 371.15 37.7 383.41 72.71 383.41 37.7"/><polygon class="cls-1" points="398.92 44.69 398.92 37.7 427.95 37.7 427.95 44.69 417.34 44.69 417.34 80.9 409.48 80.9 409.48 44.69 398.92 44.69"/><path class="cls-1" d="M444.27,56.38h6.6a4,4,0,0,0,2.73-.87,3.34,3.34,0,0,0,1-2.7V48.7a4.39,4.39,0,0,0-.89-3,3.78,3.78,0,0,0-2.93-1h-6.54Zm16.42,2.54a12.36,12.36,0,0,1-5.19,3.63L464,80.9h-8l-8.07-17.54h-3.61V80.9h-7.86V37.7h14.46c3.81,0,6.72.91,8.69,2.67s2.93,4.57,2.93,8.39v4.12a9.48,9.48,0,0,1-1.8,6"/><path class="cls-1" d="M494.58,50.27a5.61,5.61,0,0,0-2-4.59,7.71,7.71,0,0,0-5-1.63h-.87a7.78,7.78,0,0,0-5,1.6,5.53,5.53,0,0,0-2,4.57v18.1a5.61,5.61,0,0,0,1.94,4.73,8.22,8.22,0,0,0,5.13,1.48h.8a8.06,8.06,0,0,0,5.14-1.48c1.24-1,1.86-2.57,1.86-4.73ZM493.41,38a14.61,14.61,0,0,1,4.71,2.58,12.55,12.55,0,0,1,3.18,4.13,12.71,12.71,0,0,1,1.16,5.56v18.1A13.35,13.35,0,0,1,501.32,74a11.78,11.78,0,0,1-3.16,4.12,13.34,13.34,0,0,1-4.7,2.54,19.2,19.2,0,0,1-5.88.86h-.8a20.87,20.87,0,0,1-6-.82,13.29,13.29,0,0,1-4.71-2.5A11.54,11.54,0,0,1,473,74a14.08,14.08,0,0,1-1.11-5.71V50.22a12.61,12.61,0,0,1,1.18-5.5,12.44,12.44,0,0,1,3.17-4.13A14.57,14.57,0,0,1,480.9,38a17.87,17.87,0,0,1,5.81-.92h.87a18.89,18.89,0,0,1,5.83.89"/><path class="cls-1" d="M312.07,124.66a9.39,9.39,0,0,0-.71-3.81,7.12,7.12,0,0,0-2-2.6,7.41,7.41,0,0,0-2.88-1.46,12.75,12.75,0,0,0-3.46-.46h-6.46v34.36h6.22c3,0,5.25-.72,6.87-2.18a7.86,7.86,0,0,0,2.39-6.12Zm-9-12.77q6.61,0,10.18,3.43c2.37,2.27,3.54,5.41,3.54,9.34v17.73a14.81,14.81,0,0,1-1,5.87,10.63,10.63,0,0,1-2.87,4,11.8,11.8,0,0,1-4.39,2.21,21.27,21.27,0,0,1-5.59.71h-11V111.89Z"/><polygon class="cls-1" points="334.14 135.21 334.14 150.65 349.75 150.65 349.75 155.1 329.44 155.1 329.44 111.89 348.54 111.89 348.54 116.33 334.14 116.33 334.14 130.88 346.26 130.88 346.26 135.21 334.14 135.21"/><path class="cls-1" d="M373.56,118.25a6.4,6.4,0,0,0-4.65,1.61,6.08,6.08,0,0,0-1.69,4.62v18q0,6.23,6.42,6.23a9.59,9.59,0,0,0,2.53-.3,6.93,6.93,0,0,0,1.95-.79,8.88,8.88,0,0,0,1.61-1.24c.5-.47,1.06-1,1.72-1.62l4.63,5.53a17.7,17.7,0,0,1-5.65,4.11,17,17,0,0,1-6.79,1.28q-6.48,0-10.41-3.33c-2.58-2.23-3.91-5.52-3.91-9.87v-18a13.51,13.51,0,0,1,1.07-5.51,12.14,12.14,0,0,1,2.94-4.16,13.86,13.86,0,0,1,4.51-2.64,17.07,17.07,0,0,1,5.72-.91,25.2,25.2,0,0,1,4.11.3,11.85,11.85,0,0,1,3.33,1.1,11.63,11.63,0,0,1,2.83,2,16.89,16.89,0,0,1,2.45,2.93l-5,4.9a9.54,9.54,0,0,0-2.83-2.8,8.61,8.61,0,0,0-4.87-1.39"/><path class="cls-1" d="M418.29,111.89h7.86v30.17a14.25,14.25,0,0,1-1.1,5.9,11.93,11.93,0,0,1-3.09,4.28,13.11,13.11,0,0,1-4.71,2.59,19.53,19.53,0,0,1-6.15.89,20,20,0,0,1-6.11-.86,13.32,13.32,0,0,1-4.78-2.56,11.68,11.68,0,0,1-3.08-4.31,15,15,0,0,1-1.06-5.93V111.89h7.86v30.17a6.36,6.36,0,0,0,1.87,5.05,7.73,7.73,0,0,0,5.25,1.63,8,8,0,0,0,5.3-1.63c1.3-1.08,1.94-2.77,1.94-5.05Z"/><polygon class="cls-1" points="445.87 111.89 445.87 148.1 461.87 148.1 461.87 155.08 438.24 155.08 438.24 111.89 445.87 111.89"/><polygon class="cls-1" points="462.82 118.89 462.82 111.9 491.86 111.9 491.86 118.89 481.23 118.89 481.23 155.09 473.37 155.09 473.37 118.89 462.82 118.89"/><path class="cls-1" d="M522.6,111.89h7.87v30.17a14.58,14.58,0,0,1-1.11,5.9,11.83,11.83,0,0,1-3.1,4.28,12.94,12.94,0,0,1-4.71,2.59,19.44,19.44,0,0,1-6.13.89,20,20,0,0,1-6.13-.86,13.36,13.36,0,0,1-4.77-2.56,11.81,11.81,0,0,1-3.09-4.31,15.53,15.53,0,0,1-1.07-5.93V111.89h7.88v30.17a6.39,6.39,0,0,0,1.86,5.05,7.75,7.75,0,0,0,5.24,1.63,8,8,0,0,0,5.31-1.63c1.32-1.08,2-2.77,2-5.05Z"/><path class="cls-1" d="M550.36,130.57H557a4.18,4.18,0,0,0,2.73-.85,3.43,3.43,0,0,0,1-2.73v-4.11a4.39,4.39,0,0,0-.89-3,3.86,3.86,0,0,0-2.94-1h-6.53Zm16.42,2.53a12.41,12.41,0,0,1-5.18,3.63l8.45,18.35h-8L554,137.55h-3.6v17.53h-7.89V111.89H557c3.8,0,6.7.9,8.67,2.66s3,4.58,3,8.39v4.14a9.41,9.41,0,0,1-1.81,6"/><path class="cls-1" d="M596.66,138.5l-4-18.73L588.6,138.5Zm.88-26.74,11.26,43.33h-8l-2.49-10.23H587l-2.55,10.23h-8.08l11.56-43.33Z"/><path class="cls-1" d="M310.94,199.23c0-2.15-.56-3.73-1.71-4.71a7.41,7.41,0,0,0-5-1.47h-4.8v29.3h4.28a8.6,8.6,0,0,0,5.21-1.48,5.61,5.61,0,0,0,2-4.74Zm-6.67-13.16q6.68,0,10.48,3.25t3.82,9.91v16.9c0,4.65-1.32,8-3.92,10.1s-6.23,3.11-10.89,3.11H291.82V186.07Z"/><rect class="cls-1" x="331.52" y="186.06" width="7.88" height="43.21"/><path class="cls-1" d="M366.4,205.39H381v19.05a22.32,22.32,0,0,1-6.48,4.07,19.32,19.32,0,0,1-7.36,1.39,19.66,19.66,0,0,1-5.88-.84,13.28,13.28,0,0,1-4.67-2.55,11.7,11.7,0,0,1-3.08-4.17,13.46,13.46,0,0,1-1.11-5.64v-18a12.56,12.56,0,0,1,1.14-5.5,12.1,12.1,0,0,1,3.1-4.16,14.14,14.14,0,0,1,4.69-2.64,17.66,17.66,0,0,1,5.74-.92,16.8,16.8,0,0,1,7.65,1.59,15.45,15.45,0,0,1,5.43,4.63l-4.87,5.41a18.5,18.5,0,0,0-3.73-3.25,8,8,0,0,0-4.48-1.39,7.59,7.59,0,0,0-5,1.66,5.5,5.5,0,0,0-2,4.57v18a5.59,5.59,0,0,0,1.94,4.7,8,8,0,0,0,5.15,1.52,14.91,14.91,0,0,0,3.2-.32,7.34,7.34,0,0,0,2.91-1.53v-9.32H366.4Z"/><rect class="cls-1" x="394.4" y="186.06" width="7.86" height="43.21"/><polygon class="cls-1" points="413.08 193.07 413.08 186.08 442.12 186.08 442.12 193.07 431.51 193.07 431.51 229.28 423.62 229.28 423.62 193.07 413.08 193.07"/><path class="cls-1" d="M465,212.69,461,194l-4.06,18.74Zm.91-26.74,11.25,43.32h-8l-2.47-10.21H455.28l-2.56,10.21h-8.06L456.21,186Z"/><polygon class="cls-1" points="493.88 186.07 493.88 222.29 509.91 222.29 509.91 229.27 486.26 229.27 486.26 186.07 493.88 186.07"/></svg>